<?xml version="1.0" encoding="UTF-8" standalone="no"?>
<!-- Created with Inkscape (http://www.inkscape.org/) -->

<svg
   xmlns:dc="http://purl.org/dc/elements/1.1/"
   xmlns:cc="http://creativecommons.org/ns#"
   xmlns:rdf="http://www.w3.org/1999/02/22-rdf-syntax-ns#"
   xmlns:svg="http://www.w3.org/2000/svg"
   xmlns="http://www.w3.org/2000/svg"
   xmlns:sodipodi="http://sodipodi.sourceforge.net/DTD/sodipodi-0.dtd"
   xmlns:inkscape="http://www.inkscape.org/namespaces/inkscape"
   width="800"
   height="800"
   viewBox="0 0 211.66666 211.66667"
   version="1.1"
   id="svg8"
   inkscape:version="0.92.4 (5da689c313, 2019-01-14)"
   sodipodi:docname="prevencion.svg">
  <defs
     id="defs2" />
  <sodipodi:namedview
     id="base"
     pagecolor="#ffffff"
     bordercolor="#666666"
     borderopacity="1.0"
     inkscape:pageopacity="0.0"
     inkscape:pageshadow="2"
     inkscape:zoom="0.67440309"
     inkscape:cx="336.37506"
     inkscape:cy="477.95684"
     inkscape:document-units="mm"
     inkscape:current-layer="layer1"
     showgrid="false"
     units="px"
     inkscape:window-width="1920"
     inkscape:window-height="986"
     inkscape:window-x="-11"
     inkscape:window-y="-11"
     inkscape:window-maximized="1" />
  <metadata
     id="metadata5">
    <rdf:RDF>
      <cc:Work
         rdf:about="">
        <dc:format>image/svg+xml</dc:format>
        <dc:type
           rdf:resource="http://purl.org/dc/dcmitype/StillImage" />
        <dc:title></dc:title>
      </cc:Work>
    </rdf:RDF>
  </metadata>
  <g
     inkscape:label="Layer 1"
     inkscape:groupmode="layer"
     id="layer1"
     transform="translate(0,-85.333317)">
    <g
       id="g841"
       transform="matrix(7.8534711,0,0,7.8534711,-450.39922,-1314.8324)">
      <path
         inkscape:connector-curvature="0"
         id="path828"
         d="m 66.168288,191.10227 c 0,0 0.196103,1.69956 1.241995,2.68006 1.045889,0.98055 2.353253,2.74547 3.006937,2.35329 0.653681,-0.39223 4.052826,-2.22254 4.052826,-4.05285 0,-1.83031 0.457577,-2.54937 -0.130737,-4.44503 -0.588313,-1.89565 -5.033349,-1.30738 -5.033349,-1.30738 0,0 -4.641139,2.2879 -3.137672,4.77191 z"
         style="fill:none;stroke:#000000;stroke-width:1.26615489;stroke-linecap:butt;stroke-linejoin:miter;stroke-miterlimit:4;stroke-dasharray:none;stroke-opacity:1" />
      <path
         inkscape:connector-curvature="0"
         id="path826"
         d="m 63.910222,188.32838 c 0,0 -0.807966,-4.60542 0.565579,-5.33259 1.373545,-0.72717 5.251786,0 5.89816,0 0.646375,0 0.969563,-1.77752 2.100715,-1.29274 1.131155,0.48478 2.100718,2.74709 2.100718,2.74709 0,0 2.666291,-0.96957 3.231869,-0.96957 0.565576,0 0.727171,2.26231 -0.807968,2.34311 -1.535139,0.0808 -14.947397,6.46374 -14.947397,6.46374 0,0 -1.939121,0.72717 -1.939121,0 0,-0.72717 0.48478,-1.05036 1.535136,-1.85833 1.050359,-0.80796 2.262309,-2.10071 2.262309,-2.10071 z"
         style="fill:#000000;stroke:none;stroke-width:0.26458332px;stroke-linecap:butt;stroke-linejoin:miter;stroke-opacity:1" />
      <path
         sodipodi:nodetypes="csccccscc"
         inkscape:connector-curvature="0"
         id="path830"
         d="m 76.514515,189.94431 c 0,0 -11.069154,3.23187 -12.200308,4.76701 -1.131155,1.53514 -1.535139,1.53514 -1.535139,1.53514 0,0 4.039838,1.05036 4.847804,2.18151 0.807969,1.13115 -1.69673,3.15107 -2.181511,4.12063 -1.460309,2.69551 12.041793,1.52348 13.816243,-1.61593 0,0 3.635854,-4.28223 2.100715,-5.97896 -1.535139,-1.69673 -3.95904,-1.77753 -4.120634,-2.58549 -0.161594,-0.80797 -0.72717,-2.42391 -0.72717,-2.42391 z"
         style="fill:#000000;stroke:none;stroke-width:0.26458332px;stroke-linecap:butt;stroke-linejoin:miter;stroke-opacity:1" />
      <circle
         r="12.164455"
         cy="191.76222"
         cx="70.826332"
         id="path832"
         style="opacity:1;fill:none;fill-opacity:1;fill-rule:nonzero;stroke:#ff0000;stroke-width:2.11526251;stroke-linecap:butt;stroke-linejoin:miter;stroke-miterlimit:4;stroke-dasharray:none;stroke-dashoffset:0;stroke-opacity:1;paint-order:fill markers stroke" />
      <rect
         transform="rotate(46.443123)"
         y="80.005836"
         x="176.32823"
         height="2.9086826"
         width="23.996634"
         id="rect834"
         style="opacity:1;fill:#ff0000;fill-opacity:1;fill-rule:nonzero;stroke:none;stroke-width:1.65058148;stroke-linecap:butt;stroke-linejoin:miter;stroke-miterlimit:4;stroke-dasharray:none;stroke-dashoffset:0;stroke-opacity:1;paint-order:fill markers stroke" />
    </g>
  </g>
</svg>
